<svg aria-hidden="true" style="position: absolute; width: 0; height: 0; overflow: hidden;" version="1.1" xmlns="http://www.w3.org/2000/svg" xmlns:xlink="http://www.w3.org/1999/xlink">
<defs>
<symbol id="icon-Arrow-16" viewBox="0 0 32 32">
<path d="M17.459 2.449l-8.439 1.193c-1.922 0.271-2.185 0.318-2.447 0.44-0.376 0.177-0.715 0.518-0.898 0.905-0.134 0.279-0.145 0.348-0.145 0.779 0 0.452 0.008 0.488 0.177 0.832 0.177 0.379 0.474 0.678 0.84 0.854l0.011 0.005c0.29 0.141 0.728 0.23 0.964 0.192-3.465 0.307 0.744-0.291 4.958-0.872l7.365-0.83c0.013 0.011-3.93 5.267-8.76 11.678 4.943-6.938 2.058-3.132-0.821 0.679l-7.971 11.012c-0.013 0.047 2.931 2.266 2.98 2.249 0.021-0.008 3.992-5.263 8.826-11.68 7.023-9.321 8.798-11.648 8.826-11.576 0.019 0.049 0.418 2.831 0.887 6.18 0.535 3.825 0.885 6.185 0.941 6.344 0.194 0.553 0.693 1.005 1.288 1.167 0.141 0.038 0.302 0.060 0.469 0.060 0.738 0 1.376-0.427 1.681-1.046l0.005-0.011c0.277-0.561 0.322-0.126-0.99-9.474-0.732-5.22-1.216-8.516-1.274-8.706-0.245-0.785-0.943-1.276-1.801-1.265-0.226 0.002-3.014 0.375-6.671 0.89z"></path>
</symbol>
<symbol id="icon-clock" viewBox="0 0 32 32">
<path d="M14.254 1.578c-5.284 0.66-9.639 4.074-11.626 8.739l-0.036 0.095c-0.437 1.015-0.777 2.196-0.964 3.427l-0.010 0.081c-0.138 0.875-0.138 3.285 0 4.16 0.613 3.923 2.608 7.266 5.715 9.573 1.962 1.456 4.096 2.341 6.587 2.73 0.875 0.138 3.285 0.138 4.16 0 5.157-0.806 9.344-4.058 11.331-8.8 0.693-1.608 1.097-3.48 1.097-5.447 0-0.048-0-0.095-0.001-0.143l0 0.007c0-2.013-0.354-3.808-1.096-5.582-2.026-4.786-6.415-8.214-11.664-8.837l-0.069-0.007c-0.85-0.099-2.592-0.098-3.424 0.003zM17.653 3.982c3.95 0.531 7.496 3.090 9.227 6.658 0.782 1.531 1.24 3.339 1.24 5.254 0 0.037-0 0.074-0.001 0.112l0-0.006c0 0.031 0 0.069 0 0.106 0 1.915-0.458 3.723-1.271 5.321l0.031-0.067c-0.59 1.216-1.264 2.146-2.318 3.202-1.056 1.054-1.986 1.728-3.202 2.318-1.531 0.782-3.339 1.24-5.254 1.24-0.037 0-0.074-0-0.112-0.001l0.006 0c-0.028 0-0.062 0-0.096 0-1.919 0-3.73-0.458-5.332-1.271l0.067 0.031c-1.216-0.59-2.146-1.264-3.202-2.318-1.054-1.056-1.728-1.986-2.318-3.202-0.782-1.531-1.24-3.339-1.24-5.254 0-0.037 0-0.074 0.001-0.112l-0 0.006c0-1.933 0.386-3.598 1.24-5.36 0.59-1.216 1.264-2.146 2.318-3.202 1.056-1.054 1.986-1.728 3.202-2.318 1.559-0.79 3.4-1.253 5.348-1.253 0.587 0 1.165 0.042 1.729 0.123l-0.065-0.008zM15.493 6.928c-0.137 0.069-0.255 0.152-0.357 0.252l0-0c-0.322 0.344-0.309 0.15-0.309 4.848 0 4.123 0.003 4.306 0.101 4.494 0.072 0.13 0.156 0.242 0.254 0.341l-0-0c0.083 0.077 1.43 0.779 2.992 1.56 2.683 1.338 2.859 1.418 3.136 1.418 0.012 0 0.026 0.001 0.040 0.001 0.31 0 0.592-0.117 0.804-0.31l-0.001 0.001c0.451-0.424 0.472-1.23 0.043-1.683-0.088-0.093-1.086-0.624-2.584-1.373l-2.44-1.222v-3.773c-0.002-3.558-0.008-3.786-0.101-3.987-0.202-0.401-0.611-0.672-1.082-0.672-0.18 0-0.351 0.039-0.504 0.11l0.008-0.003z"></path>
</symbol>
<symbol id="icon-eye" viewBox="0 0 32 32">
<path d="M14.853 3.792c-3.019 0.246-5.947 1.514-8.72 3.773-0.738 0.602-2.405 2.27-3.075 3.080-0.951 1.138-1.852 2.4-2.654 3.73l-0.076 0.136-0.328 0.563v1.853l0.328 0.563c0.419 0.718 1.28 2.010 1.795 2.693 1.493 1.973 3.454 3.926 5.157 5.133 1.36 0.963 3.026 1.81 4.48 2.278 1.267 0.415 2.726 0.654 4.24 0.654s2.973-0.239 4.34-0.682l-0.1 0.028c1.454-0.469 3.12-1.315 4.48-2.278 1.702-1.206 3.664-3.16 5.157-5.133 0.515-0.683 1.376-1.974 1.795-2.693l0.328-0.563v-1.853l-0.328-0.563c-0.878-1.465-1.779-2.728-2.769-3.914l0.039 0.048c-0.67-0.81-2.338-2.478-3.075-3.080-3.466-2.824-7.157-4.088-11.014-3.773zM17.787 7.088c2.264 0.421 4.33 1.462 6.32 3.184 1.153 1.022 2.185 2.129 3.104 3.328l0.041 0.056c0.598 0.784 1.547 2.224 1.547 2.347s-1.152 1.843-1.72 2.57c-1.107 1.414-2.453 2.781-3.667 3.728-1.766 1.376-3.619 2.234-5.653 2.619-0.886 0.168-2.634 0.168-3.52 0-2.034-0.386-3.886-1.243-5.653-2.619-1.214-0.947-2.56-2.314-3.667-3.728-0.568-0.726-1.72-2.446-1.72-2.57 0-0.115 0.918-1.52 1.47-2.25 2.872-3.792 6.123-6.061 9.542-6.661 0.835-0.146 0.906-0.15 2-0.131 0.707 0.011 1.154 0.048 1.574 0.126zM15.267 10.453c-1.265 0.186-2.37 0.762-3.216 1.599l0.001-0.001c-1.012 1.010-1.637 2.406-1.637 3.948 0 1.153 0.35 2.224 0.949 3.114l-0.013-0.020c0.754 1.146 1.915 1.963 3.309 2.333 0.446 0.118 0.624 0.136 1.341 0.136 0.722 0 0.894-0.018 1.352-0.139 2.005-0.518 3.552-2.066 4.062-4.031l0.009-0.039c0.122-0.458 0.139-0.63 0.139-1.352s-0.018-0.894-0.139-1.352c-0.648-2.451-2.718-4.128-5.206-4.219-0.089-0.004-0.193-0.006-0.298-0.006-0.229 0-0.456 0.011-0.679 0.033l0.028-0.002zM16.616 13.683c1.029 0.29 1.773 1.215 1.784 2.316v0.001c0 1.307-1.093 2.4-2.4 2.4-1.102-0.011-2.027-0.755-2.313-1.767l-0.004-0.017c-0.050-0.183-0.079-0.393-0.079-0.61 0-1.326 1.075-2.402 2.402-2.402 0.217 0 0.427 0.029 0.627 0.083l-0.017-0.004z"></path>
</symbol>
<symbol id="icon-eye-off" viewBox="0 0 32 32">
<path d="M0.213 0.213l-0.213 0.214v1.835l5.699 5.71-0.627 0.568c-1.666 1.506-3.502 3.829-4.771 6.037l-0.301 0.525v1.824l0.328 0.563c0.878 1.465 1.778 2.728 2.767 3.914l-0.039-0.049c0.664 0.802 2.331 2.472 3.077 3.080 1.883 1.534 3.83 2.608 5.843 3.218 1.138 0.367 2.447 0.578 3.805 0.578 0.077 0 0.154-0.001 0.231-0.002l-0.012 0c2.6-0.008 5.002-0.672 7.426-2.053l0.307-0.174 6.005 5.998h1.835l0.214-0.213 0.213-0.214v-1.838l-29.734-29.734h-1.838l-0.214 0.213zM14.794 3.792c-1.096 0.098-2.115 0.309-2.422 0.502-0.255 0.178-0.463 0.405-0.614 0.67l-0.005 0.010c-0.138 0.264-0.162 0.942-0.043 1.25 0.192 0.504 0.762 0.949 1.298 1.011 0.154 0.019 0.466-0.011 0.81-0.078 2.525-0.494 4.934-0.142 7.296 1.066 0.957 0.49 2.147 1.302 3.021 2.062 0.886 0.771 2.123 2.091 2.947 3.142 0.547 0.698 1.72 2.445 1.72 2.56 0 0.184-1.091 1.795-1.933 2.856-0.49 0.618-0.61 0.835-0.656 1.194-0.009 0.065-0.015 0.139-0.015 0.215 0 0.613 0.352 1.145 0.865 1.403l0.009 0.004c0.183 0.109 0.404 0.173 0.64 0.173 0.033 0 0.065-0.001 0.097-0.004l-0.004 0c0.45-0.003 0.694-0.094 1.006-0.376 0.635-0.574 2.203-2.781 2.968-4.179l0.222-0.406v-1.778l-0.246-0.438c-0.671-1.116-1.288-2.036-1.942-2.927l0.074 0.105c-1.51-1.994-3.459-3.936-5.165-5.144-1.36-0.963-3.024-1.81-4.48-2.278-1.286-0.419-2.765-0.66-4.301-0.66-0.403 0-0.803 0.017-1.198 0.049l0.052-0.003zM10.832 13.762c-0.328 0.687-0.52 1.494-0.52 2.345 0 1.54 0.628 2.934 1.641 3.939l0 0c1.006 1.013 2.4 1.641 3.94 1.641 0.851 0 1.657-0.191 2.378-0.534l-0.034 0.014 0.451-0.211 2.701 2.696-0.562 0.272c-1.141 0.554-2.645 0.962-4.029 1.093-2.981 0.283-6.115-0.874-8.907-3.29-1.153-1.022-2.185-2.129-3.104-3.328l-0.041-0.056c-0.579-0.76-1.547-2.222-1.547-2.339 0-0.101 0.674-1.165 1.166-1.845 0.916-1.248 1.891-2.347 2.96-3.348l0.013-0.012 0.624-0.57 3.080 3.080-0.211 0.451zM15.981 18.496c-0.307 0.021-0.872-0.112-1.218-0.288-0.738-0.374-1.27-1.275-1.27-2.152v-0.296l2.722 2.72-0.234 0.016z"></path>
</symbol>
<symbol id="icon-image" viewBox="0 0 32 32">
<path d="M7.52 0.035c-1.298 0.098-2.503 0.46-3.514 1.058-2.059 1.217-3.407 3.142-3.884 5.547-0.089 0.449-0.095 1.051-0.095 9.306 0 9.683-0.016 9.155 0.315 10.298 0.746 2.574 2.84 4.669 5.414 5.414 1.142 0.331 0.62 0.315 10.244 0.315s9.102 0.016 10.244-0.315c2.574-0.746 4.669-2.84 5.414-5.414 0.331-1.142 0.315-0.62 0.315-10.244s0.016-9.102-0.315-10.244c-0.746-2.574-2.84-4.669-5.413-5.414-1.13-0.327-0.611-0.31-9.952-0.318-4.694-0.004-8.642 0.001-8.774 0.011z"></path>
</symbol>
<symbol id="icon-Vector" viewBox="0 0 32 32">
<path d="M8.773 2.814c-2.255 0.225-4.052 1.079-5.546 2.64-1.464 1.527-2.365 3.603-2.365 5.889 0 0.983 0.167 1.927 0.473 2.806l-0.018-0.060c0.257 0.761 0.745 1.692 1.206 2.305 0.527 0.698 12.668 12.905 12.956 13.025 0.251 0.105 0.788 0.106 1.035 0.002 0.279-0.117 12.446-12.342 12.953-13.015 1.644-2.183 2.11-5.162 1.218-7.812-0.694-2.062-2.267-3.877-4.22-4.869-1.124-0.586-2.455-0.929-3.866-0.929-0.944 0-1.851 0.154-2.7 0.437l0.060-0.017c-1.282 0.41-2.29 1.029-3.415 2.1l-0.544 0.517-0.546-0.522c-1.714-1.634-3.536-2.418-5.793-2.496-0.137-0.006-0.297-0.010-0.458-0.010-0.151 0-0.301 0.003-0.451 0.010l0.021-0.001z"></path>
</symbol>
<symbol id="icon-x" viewBox="0 0 32 32">
<path d="M7.493 6.874c-0.431 0.205-0.723 0.637-0.723 1.137 0 0.189 0.042 0.369 0.117 0.53l-0.003-0.008c0.083 0.184 0.95 1.083 3.718 3.854l3.61 3.613-3.61 3.613c-2.768 2.771-3.635 3.67-3.718 3.854-0.211 0.467-0.11 1.056 0.242 1.407 0.351 0.352 0.94 0.453 1.407 0.242 0.184-0.083 1.083-0.95 3.854-3.718l3.613-3.61 3.613 3.61c2.771 2.768 3.67 3.635 3.854 3.718 0.467 0.211 1.056 0.11 1.407-0.242 0.352-0.351 0.453-0.94 0.242-1.407-0.083-0.184-0.95-1.083-3.718-3.854l-3.61-3.613 3.61-3.613c2.768-2.771 3.635-3.67 3.718-3.854 0.211-0.467 0.11-1.056-0.242-1.407-0.351-0.352-0.94-0.453-1.407-0.242-0.184 0.083-1.083 0.95-3.854 3.718l-3.613 3.61-3.613-3.61c-2.771-2.768-3.67-3.635-3.854-3.718-0.305-0.138-0.753-0.142-1.040-0.010z"></path>
</symbol>
<symbol id="icon-fe_check-converted" viewBox="0 0 32 32">
<path d="M18.693 13.333l-5.333 5.333-5.334-5.333-2.666 2.667 8 8 13.333-13.333-2.667-2.667-5.333 5.333z"></path>
</symbol>
</defs>
</svg>
